<svg width="200" height="200" viewBox="0 0 200 200" fill="none" xmlns="http://www.w3.org/2000/svg">
<g clip-path="url(#clip0_1_2)">
<circle cx="100" cy="100" r="97.5" stroke="#8B3DFE" stroke-width="5"/>
<path d="M175.5 100C175.5 142.862 141.638 177.5 100 177.5C58.3618 177.5 24.5 142.862 24.5 100C24.5 57.1379 58.3618 22.5 100 22.5C141.638 22.5 175.5 57.1379 175.5 100Z" stroke="#8B3DFE" stroke-width="5"/>
<mask id="path-3-inside-1_1_2" fill="white">
<path fill-rule="evenodd" clip-rule="evenodd" d="M80.3832 51L102.5 98.709L76.7195 151.743C57.8544 142.352 45 123.693 45 102.209C45 79.361 59.5383 59.7088 80.3832 51Z"/>
</mask>
<path d="M102.5 98.709L111.494 103.081L113.569 98.8108L111.573 94.5032L102.5 98.709ZM80.3832 51L89.4558 46.7942L85.4082 38.063L76.5282 41.7729L80.3832 51ZM76.7195 151.743L72.263 160.695L81.2999 165.194L85.7132 156.115L76.7195 151.743ZM111.573 94.5032L89.4558 46.7942L71.3107 55.2058L93.4275 102.915L111.573 94.5032ZM85.7132 156.115L111.494 103.081L93.5063 94.3371L67.7258 147.371L85.7132 156.115ZM81.1761 142.791C65.3568 134.916 55 119.523 55 102.209H35C35 127.864 50.3521 149.787 72.263 160.695L81.1761 142.791ZM55 102.209C55 83.8062 66.72 67.5461 84.2382 60.2271L76.5282 41.7729C52.3566 51.8716 35 74.9158 35 102.209H55Z" fill="#8B3DFE" mask="url(#path-3-inside-1_1_2)"/>
<mask id="path-5-inside-2_1_2" fill="white">
<path fill-rule="evenodd" clip-rule="evenodd" d="M120.117 51.209L98 98.918L123.78 151.952C142.646 142.561 155.5 123.902 155.5 102.418C155.5 79.57 140.962 59.9179 120.117 51.209Z"/>
</mask>
<path d="M98 98.918L89.0063 103.29L86.9306 99.0198L88.9275 94.7122L98 98.918ZM120.117 51.209L111.044 47.0032L115.092 38.272L123.972 41.9819L120.117 51.209ZM123.78 151.952L128.237 160.904L119.2 165.403L114.787 156.324L123.78 151.952ZM88.9275 94.7122L111.044 47.0032L129.189 55.4148L107.073 103.124L88.9275 94.7122ZM114.787 156.324L89.0063 103.29L106.994 94.5461L132.774 147.58L114.787 156.324ZM119.324 143C135.143 135.125 145.5 119.732 145.5 102.418H165.5C165.5 128.073 150.148 149.996 128.237 160.904L119.324 143ZM145.5 102.418C145.5 84.0152 133.78 67.7551 116.262 60.4361L123.972 41.9819C148.143 52.0806 165.5 75.1249 165.5 102.418H145.5Z" fill="#8B3DFE" mask="url(#path-5-inside-2_1_2)"/>
<rect x="98" width="5" height="23" fill="#8B3DFE"/>
<rect x="98" y="177" width="5" height="23" fill="#8B3DFE"/>
<rect x="3" y="103" width="23" height="5" fill="#8B3DFE"/>
<rect x="177" y="103" width="20" height="5" fill="#8B3DFE"/>
</g>
<defs>
<clipPath id="clip0_1_2">
<rect width="200" height="200" fill="white"/>
</clipPath>
</defs>
</svg>
